<svg xmlns="http://www.w3.org/2000/svg" viewBox="0 0 64 64" role="img" aria-labelledby="wtf-title wtf-desc">
  <title id="wtf-title">Write to Freedom</title>
  <desc id="wtf-desc">A brass pen nib on a black tile, drawn in sharp geometric lines.</desc>
  <defs>
    <linearGradient id="wtf-brass" x1="0" y1="0" x2="1" y2="1">
      <stop offset="0" stop-color="#d4b476"/>
      <stop offset=".55" stop-color="#b08d57"/>
      <stop offset="1" stop-color="#8a6b3d"/>
    </linearGradient>
  </defs>
  <rect width="64" height="64" rx="14" fill="#0a0a0a"/>
  <rect x=".5" y=".5" width="63" height="63" rx="13.5" fill="none" stroke="#ffffff" stroke-opacity=".08"/>
  <path fill="url(#wtf-brass)" fill-rule="evenodd" d="M32 7c9.4 0 16 7.6 16 19.4 0 6.6-2.3 13-6.6 19.2L32 58l-9.4-12.4C18.3 39.4 16 33 16 26.4 16 14.6 22.6 7 32 7Zm0 15.6a4.2 4.2 0 1 0 0 8.4 4.2 4.2 0 0 0 0-8.4Zm-1.2 9.9h2.4V49.5L32 51.2l-1.2-1.7Z"/>
  <path fill="none" stroke="#ffffff" stroke-opacity=".28" stroke-width="1.2" stroke-linecap="round" d="M22.5 15.5c2.4-3 5.6-4.6 9.5-4.6"/>
</svg>
